# xmcd
#
# Track frame offsets:
#	150
#	19706
#	30979
#	50829
#	68590
#	90207
#	104669
#	118328
#	131627
#	144365
#	163495
#	182350
#	201104
#	222051
#	237239
#
# Disc length: 3395
#
# Revision: 1
# Processed by: cddbd v1.5.2PL0 Copyright (c) Steve Scherf et al.
# Submitted via: kJams Pro 1.0b99
#
DISCID=cf0d410f
DTITLE=Unknown Artist - PC 002
DYEAR=2016
DGENRE=Karaoke
TTITLE0=Connells, The - '74–'75
TTITLE1=Elvis Presley - A House That Has Everything
TTITLE2=Luther Vandross - Dance With My Father
TTITLE3=Toby Keith and Krystal Keith - Mockingbird
TTITLE4=Kenny Chesney and George Strait - Shiftwork
TTITLE5=Elvis Presley - Witchcraft
TTITLE6=Roy Orbison - Pretty Paper
TTITLE7=Elvis Presley - Fools Rush In
TTITLE8=Dean Martin - Sweetheart
TTITLE9=Michael Learns To Rock - That's Why I'm Here
TTITLE10=Michael Learns To Rock - Take Me To Your Heart
TTITLE11=Michael Learns To Rock - Paint My Love
TTITLE12=Brad Paisley and Alison Kraus - Whiskey Lullaby
TTITLE13=Joe Nichols - Tequila Makes Her Cloths Fall Off
TTITLE14=George Strait - As Far As It Goes
EXTD=
EXTT0=
EXTT1=
EXTT2=
EXTT3=
EXTT4=
EXTT5=
EXTT6=
EXTT7=
EXTT8=
EXTT9=
EXTT10=
EXTT11=
EXTT12=
EXTT13=
EXTT14=
PLAYORDER=
